<svg version="1.1" xmlns="http://www.w3.org/2000/svg" xmlns:xlink="http://www.w3.org/1999/xlink" width="86.64946" height="99.9814" viewBox="0,0,86.64946,99.9814"><g transform="translate(-197.47781,-107.56529)"><g data-paper-data="{&quot;isPaintingLayer&quot;:true}" fill-rule="evenodd" stroke="none" stroke-linecap="butt" stroke-linejoin="miter" stroke-miterlimit="10" stroke-dasharray="" stroke-dashoffset="0" style="mix-blend-mode: normal"><g><path d="M207.60041,162.1006c18.42313,30.07705 48.18358,30.07705 66.60671,0l9.92015,16.19534c-23.88934,39.00101 -62.76013,39.00101 -86.64946,0z" fill="#daead4" stroke-width="1"/><path d="M240.60009,107.56529l34.41684,56.1879c-18.82804,31.0686 -49.60074,31.0686 -68.63123,0z" fill="#ee1717" stroke-width="1"/><path d="M235.33634,168.04991c1.82207,1.32207 2.83433,3.63569 2.42942,5.61879c-0.4049,1.9831 -2.22697,2.31362 -4.04904,1.32207c-1.82207,-1.32207 -2.83433,-3.63569 -2.42942,-5.61879c0.4049,-1.9831 2.22697,-2.31362 4.04904,-1.32207z" fill="#231f20" stroke-width="1"/><g fill="#231f20" stroke-width="1"><path d="M227.41743,145.34273c1.52163,-1.34289 3.25502,-1.06955 3.46699,0.54634c0.49742,1.58384 -0.41361,3.795 -1.93524,5.13789c-1.52163,1.34256 -3.25523,1.06955 -3.46699,-0.54634c-0.49742,-1.58384 0.41341,-3.795 1.93524,-5.13789z"/></g><g fill="#231f20" stroke-width="1"><path d="M220.00019,162.13233c1.67934,-0.6769 3.31556,0.29713 3.55384,2.034c-0.04312,1.65126 -1.15033,3.69121 -2.82967,4.36811c-1.67914,0.6769 -3.31535,-0.29713 -3.55364,-2.034c-0.23829,-1.73687 1.15033,-3.69121 2.82947,-4.36811z"/></g><g fill="#231f20" stroke-width="1"><path d="M261.45568,156.36977c1.72975,0.01256 2.91065,1.41395 2.88211,3.19346c-0.02855,1.77917 -1.47749,3.00638 -3.20724,2.99349c-1.72955,-0.01256 -2.91045,-1.41395 -2.8819,-3.19313c0.2887,-1.58417 1.66719,-3.1214 3.20704,-2.99382z"/></g><g fill="#231f20" stroke-width="1"><path d="M238.99768,127.32426c1.72975,-0.02842 2.923,1.34487 2.91025,3.12471c-0.01275,1.7795 -1.26168,2.9221 -2.99123,2.9502c-1.72975,0.02842 -2.923,-1.34454 -2.91025,-3.12438c0.08564,-1.47146 1.45037,-3.04142 2.99123,-2.95053z"/></g><g fill="#231f20" stroke-width="1"><path d="M254.42938,140.79481c0.80778,2.64579 0.60331,5.28926 -0.32858,6.21306c-0.93209,0.92346 -2.46991,-0.1375 -3.39937,-2.51887c-0.80778,-2.64579 -0.60331,-5.28959 0.32878,-6.21306c1.21532,-0.98924 2.63147,0.33581 3.39917,2.51887z"/></g><path d="M242.62461,149.54095c1.21471,1.65259 1.82207,3.9662 1.21471,5.61879c-0.60736,1.32207 -2.22697,0.99155 -3.64414,-0.33052c-1.21471,-1.65259 -1.82207,-3.9662 -1.21471,-5.61879c0.80981,-1.32207 2.22697,-1.32207 3.64414,0.33052z" fill="#231f20" stroke-width="1"/><path d="M251.73495,171.02456c-0.20245,2.97465 -1.41716,5.28827 -2.63188,5.28827c-1.21471,-0.33052 -2.02452,-2.97465 -1.82207,-6.27982c0.20245,-2.97465 1.41716,-5.28827 2.63188,-5.28827c1.41716,0.33052 2.22697,2.97465 1.82207,6.27982z" fill="#231f20" stroke-width="1"/></g><path d="M259.6,184.5l1.8,1.8c-11.8,11.8 -31,11.8 -42.8,0l2.1,-2.1c10.7,11 28,11 38.9,0.3z" fill="#99c566" stroke-width="1"/></g></g></svg>